# xmcd
#
# Track frame offsets:
#	150
#	20085
#	39340
#	60145
#	79052
#	93657
#	111105
#	128630
#	145685
#	170815
#	191012
#	209372
#	231465
#	250002
#
# Disc length: 3591 seconds
#
# Revision: 0
# Processed by: cddbd v1.5.2PL0 Copyright (c) Steve Scherf et al.
# Submitted via: audiograbber 1.83.01
#
DISCID=bd0e050e
DTITLE=Inga Rumpf and Joja Wendt Quartet - In The 25th Hour
DYEAR=1996
DGENRE=Blues
TTITLE0=Undercover Agent For The Blues
TTITLE1=The Nicer The Nice
TTITLE2=Summertime
TTITLE3=In The 25th Hour
TTITLE4=Cakewalk Into Town
TTITLE5=My Own Way To Rock
TTITLE6=Crazy For Rhythm
TTITLE7=Love Is Gold
TTITLE8=Unchain My Heart
TTITLE9=Ain't No Hour Too Late
TTITLE10=Like A Ship On The Rocks
TTITLE11=I Cover The Waterfront
TTITLE12=What Is A Handful Of Gold
TTITLE13=Everything Is Possible
EXTD=
EXTT0=
EXTT1=
EXTT2=
EXTT3=
EXTT4=
EXTT5=
EXTT6=
EXTT7=
EXTT8=
EXTT9=
EXTT10=
EXTT11=
EXTT12=
EXTT13=
PLAYORDER=
